<svg width="122" height="130" viewBox="0 0 122 130" fill="none" xmlns="http://www.w3.org/2000/svg">
<path d="M0.988252 113.611C1.06419 115.874 3.45504 120.054 3.45504 120.054C3.45504 120.054 5.44651 123.689 7.21805 124.531C9.21581 125.48 11.1561 124.647 13.2632 123.317L13.2725 123.311L32.6625 112.612L32.3767 101.272L23.7377 100.243L22.0268 99.8731C22.0268 99.8731 19.9079 99.6137 15.1835 103.142C13.5211 104.383 9.49775 108.501 7.30624 112.791C4.9802 109.183 0.854681 109.685 0.988252 113.611Z" fill="white"/>
<g opacity="0.3">
<path d="M0.845417 113.745C0.921643 115.982 3.32309 120.114 3.32309 120.114C3.32309 120.114 5.32342 123.708 7.1029 124.541C9.1096 125.48 11.0586 124.657 13.1752 123.343L13.1845 123.337L32.6618 112.771L32.532 107.696L13.0547 118.262L13.0453 118.268C10.9287 119.582 8.97973 120.405 6.97303 119.466C5.19355 118.633 3.19322 115.039 3.19322 115.039C3.19322 115.039 2.18601 113.307 1.45463 111.479C1.04619 112.014 0.81106 112.774 0.845417 113.745Z" fill="#102770"/>
</g>
<path d="M8.96144 125.734C8.23707 125.756 7.50762 125.618 6.76656 125.265C4.84226 124.351 2.89294 120.867 2.67703 120.473C2.42899 120.04 0.187291 116.057 0.105703 113.649C0.0360717 111.591 0.991371 110.066 2.59885 109.668C4.55474 109.184 7.23624 110.544 8.57456 114.08C8.72668 114.482 8.55849 114.945 8.19892 115.115C7.83836 115.285 7.42445 115.096 7.27234 114.694C6.24632 111.983 4.25666 110.876 2.90609 111.211C1.98095 111.44 1.47519 112.307 1.51865 113.59C1.57563 115.271 3.23924 118.524 3.87548 119.636C4.40484 120.601 6.0398 123.204 7.31888 123.812C9.51548 124.855 11.6946 123.374 14.4528 121.498C16.1976 120.311 18.1753 118.965 20.4049 118.191C20.7776 118.062 21.174 118.295 21.2902 118.712C21.4064 119.128 21.1984 119.571 20.8256 119.7C18.7625 120.416 16.9459 121.652 15.1891 122.847C13.0704 124.289 11.0385 125.671 8.96144 125.734Z" fill="#102770"/>
<path d="M7.52934 113.548C7.41985 113.551 7.30825 113.526 7.20283 113.468C6.85188 113.278 6.70491 112.804 6.87461 112.41C8.96217 107.565 13.0185 103.657 14.8717 102.267C19.6647 98.6729 21.9301 98.8299 22.1734 98.8599C22.5609 98.9074 22.8411 99.2986 22.799 99.7336C22.7575 100.164 22.4157 100.477 22.034 100.436C21.9686 100.433 19.9579 100.359 15.6567 103.585C13.9138 104.892 10.101 108.563 8.14549 113.101C8.02675 113.377 7.78434 113.54 7.52934 113.548Z" fill="#102770"/>
<path d="M16.6007 110.875C16.4215 110.88 16.2441 110.783 16.1402 110.601C16.1188 110.564 14.5984 107.972 11.5668 106.837C11.2896 106.733 11.1394 106.397 11.2314 106.085C11.3236 105.773 11.6235 105.605 11.9001 105.708C15.3074 106.984 16.9621 109.839 17.0309 109.96C17.1883 110.236 17.1165 110.604 16.8705 110.781C16.7867 110.841 16.6934 110.872 16.6007 110.875Z" fill="#102770"/>
<path d="M28.6774 86.2227C28.6774 86.2227 13.4844 83.5165 12.4078 69.7966C11.8961 63.276 17.5945 63.1787 19.406 64.6291C22.5477 67.1446 25.2826 77.3744 31.3781 75.2695L42.6239 75.8634L34.2205 91.3273L28.6774 86.2227Z" fill="white"/>
<path d="M34.2221 91.4552C34.1956 91.4556 34.1695 91.4456 34.1487 91.4263L28.6289 86.343C28.258 86.2717 24.6117 85.5288 20.8925 83.267C17.2798 81.0701 12.8557 76.9516 12.2952 69.8075C12.0458 66.6297 13.2582 65.1446 14.3192 64.4583C15.9966 63.3735 18.3377 63.6165 19.4714 64.5246C20.4908 65.3408 21.4697 66.9586 22.506 68.6715C24.7411 72.3656 27.2749 76.5537 31.3447 75.1472C31.3572 75.143 31.3699 75.1413 31.3831 75.1418L42.6287 75.7357C42.6688 75.7378 42.7048 75.7636 42.7235 75.8036C42.7423 75.8434 42.741 75.8915 42.7201 75.93L34.3168 91.3943C34.2997 91.4257 34.2715 91.4472 34.2393 91.4534C34.2335 91.4545 34.2278 91.4551 34.2221 91.4552ZM16.7924 64.0035C15.9803 64.0174 15.1367 64.2239 14.4318 64.6798C13.4282 65.329 12.2818 66.7418 12.5206 69.7852C13.0721 76.8133 17.4331 80.8718 20.9944 83.0389C24.8655 85.3944 28.657 86.09 28.6947 86.0967C28.7146 86.1002 28.7332 86.1095 28.7488 86.1239L34.1914 91.1362L42.4269 75.9807L31.3922 75.3979C30.8448 75.5849 30.3247 75.676 29.8296 75.6845C26.5091 75.7417 24.2996 72.0887 22.319 68.8153C21.2945 67.1218 20.3267 65.5224 19.3405 64.7328C18.7567 64.2653 17.7988 63.9863 16.7924 64.0035Z" fill="#102770"/>
<g opacity="0.3">
<path d="M42.6233 75.8942L34.2099 91.3277L28.6603 86.2333C28.6603 86.2333 13.4488 83.5318 12.3709 69.8387C12.3039 68.9844 12.3433 68.2422 12.4694 67.5984C16.1929 81.3245 30.6414 80.3033 30.6414 80.3033L33.7146 86.1473L39.3963 75.7252L42.6233 75.8942Z" fill="#102770"/>
</g>
<path d="M28.6449 86.9553C28.6047 86.956 28.5639 86.9529 28.5228 86.9455C28.3632 86.9169 24.5694 86.2175 20.5863 83.7818C15.2343 80.509 12.1619 75.6561 11.7011 69.7477C11.4103 66.0181 13.0273 64.3814 14.017 63.7378C15.9489 62.4812 18.5212 62.8122 19.7969 63.8395C20.9005 64.7282 21.906 66.3992 22.9705 68.1686C25.1872 71.8527 27.4796 75.6625 31.1198 74.3982C31.493 74.2682 31.8899 74.5069 32.0046 74.9313C32.1192 75.3555 31.9089 75.8046 31.535 75.9345C30.9234 76.1469 30.3425 76.2496 29.791 76.2592C26.1608 76.3219 23.7717 72.3501 21.8005 69.0738C20.8097 67.4269 19.8738 65.8713 18.9772 65.1494C18.1782 64.5058 16.1729 64.1881 14.7221 65.1317C13.485 65.9361 12.9433 67.4419 13.1122 69.6069C14.1247 82.592 28.5971 85.3324 28.7431 85.3585C29.1295 85.4276 29.3935 85.839 29.3326 86.2772C29.2783 86.6688 28.9828 86.9495 28.6449 86.9553Z" fill="#102770"/>
<path d="M106.564 69.429L105.448 72.2774C104.943 73.5659 103.85 74.4388 102.601 74.5499C98.8815 74.8809 95.1523 74.0618 91.8171 72.1813C90.6972 71.5498 89.976 70.2782 89.9395 68.8708L89.8589 65.7597" fill="#20A7D1"/>
<g opacity="0.5">
<path d="M93.6528 72.1636C92.5346 71.537 91.8116 70.2702 91.7701 68.8653L91.6878 66.0714L90.3162 65.7746L90.4077 68.8802C90.4492 70.2851 91.1723 71.5519 92.2905 72.1785C95.3814 73.9104 98.8075 74.7263 102.246 74.56C99.2699 74.4796 96.3352 73.6665 93.6528 72.1636Z" fill="white"/>
</g>
<g opacity="0.35">
<path d="M89.8586 65.7597L89.8842 66.7486L102.233 69.4612L101.118 72.3095C100.685 73.4128 99.8209 74.2096 98.7975 74.4862C100.056 74.6385 101.328 74.6631 102.6 74.5499C103.849 74.4388 104.943 73.5659 105.448 72.2773L106.564 69.4291L89.8586 65.7597Z" fill="#102770"/>
</g>
<path d="M86.798 52.1799C82.4392 51.6969 74.4152 55.0623 74.358 73.1049C74.3573 73.3416 74.6146 73.457 74.7561 73.2831C76.2946 71.3914 83.4628 62.4412 89.1015 63.945" fill="#EC1C24"/>
<g opacity="0.5">
<path d="M75.8782 71.1959C75.1931 71.9918 74.6702 72.6482 74.3682 73.0237C74.2277 73.1984 73.973 73.0841 73.9724 72.8476C73.9666 54.8325 81.9263 51.4448 86.2584 51.912L86.5102 53.1833C82.3528 53.6248 76.5907 57.5695 75.8782 71.1959Z" fill="white"/>
</g>
<path d="M74.5964 74.175C74.478 74.1759 74.3583 74.1514 74.2425 74.0998C73.8781 73.9371 73.6433 73.5449 73.6449 73.101C73.6724 64.3913 75.4967 58.1179 79.0673 54.4551C82.1984 51.2431 85.5662 51.232 86.8675 51.3762C87.2591 51.4195 87.5455 51.815 87.5074 52.2594C87.4693 52.7037 87.1185 53.0297 86.7296 52.9854C85.6153 52.862 82.7322 52.8749 80.0226 55.6548C76.9972 58.7583 75.3019 64.2863 75.0914 71.6945C82.0843 63.4174 86.6436 62.4592 89.2649 63.1579C89.648 63.2601 89.8854 63.6953 89.7956 64.1299C89.7058 64.565 89.3202 64.8343 88.9396 64.7319C87.0161 64.2188 82.6931 64.7075 75.3518 73.7405L75.2783 73.8309C75.0976 74.0534 74.8507 74.1731 74.5964 74.175Z" fill="#102770"/>
<path d="M113.841 58.3393C118.032 59.7561 124.578 66.3631 118.664 83.1195C118.586 83.3394 118.31 83.3363 118.237 83.1145C117.44 80.702 113.517 69.2789 107.806 68.2611" fill="#D25658"/>
<path d="M118.454 83.4113C118.452 83.4113 118.45 83.4112 118.448 83.4112C118.305 83.4094 118.181 83.3106 118.131 83.1595C116.767 79.0292 113.027 69.3218 107.788 68.3884C107.727 68.3772 107.684 68.3113 107.694 68.2409C107.704 68.1704 107.763 68.1224 107.824 68.1334C113.18 69.0881 116.965 78.8961 118.343 83.0688C118.369 83.1462 118.432 83.153 118.45 83.1533C118.463 83.1539 118.532 83.1484 118.559 83.0709C121.25 75.4478 121.633 68.971 119.668 64.3408C117.925 60.2343 114.99 58.8622 113.809 58.463C113.749 58.4426 113.715 58.3709 113.733 58.3026C113.751 58.2345 113.813 58.1956 113.874 58.2156C115.084 58.6247 118.09 60.0295 119.872 64.2286C121.866 68.9259 121.485 75.4748 118.77 83.1672C118.718 83.3151 118.594 83.4102 118.454 83.4113Z" fill="#102770"/>
<path d="M118.665 83.1196C118.586 83.3388 118.311 83.3355 118.237 83.1137C117.828 81.8788 116.6 78.2788 114.731 74.9244C112.965 71.7537 110.626 68.8027 107.867 68.2737C107.847 68.2693 107.825 68.2665 107.806 68.262L107.842 68.2017L113.841 58.3399C115.017 58.7376 116.379 59.5439 117.598 60.8709C120.725 64.2646 122.918 71.065 118.665 83.1196Z" fill="#EC1C24"/>
<path d="M116.814 61.9122C115.81 61.0281 114.76 60.4582 113.827 60.1459L108.778 68.5307C111.147 69.4374 113.178 72.0707 114.754 74.8847C116.72 70.6695 117.565 67.0004 117.68 63.8693C117.678 63.8345 117.676 63.7999 117.674 63.7652C117.631 63.0375 117.32 62.3581 116.814 61.9122Z" fill="#102770"/>
<path d="M118.46 84.0902C118.454 84.0902 118.448 84.0903 118.442 84.0902C118.051 84.0851 117.71 83.8132 117.573 83.3977C116.537 80.2627 112.762 69.9634 107.694 69.0608C107.306 68.9917 107.041 68.5777 107.102 68.1362C107.162 67.6947 107.524 67.3921 107.914 67.4619C113.06 68.3785 116.752 76.7633 118.449 81.5067C120.671 74.6381 120.91 68.8264 119.131 64.6374C117.446 60.6673 114.501 59.4078 113.639 59.1163C113.263 58.9892 113.048 58.5388 113.16 58.1104C113.271 57.6822 113.666 57.4381 114.044 57.5651C115.33 57.9999 118.525 59.4907 120.412 63.9336C122.511 68.8772 122.145 75.4332 119.326 83.4199C119.182 83.8261 118.843 84.0873 118.46 84.0902Z" fill="#102770"/>
<path d="M106.706 69.3606C106.706 69.3606 116.678 60.2805 119.075 38.3755C121.889 12.6598 109.884 0.534774 109.884 0.534774C109.884 0.534774 94.7596 6.6152 88.8804 31.648C83.8724 52.9714 90.1144 65.6639 90.1144 65.6639C95.0798 69.1172 100.966 70.4286 106.706 69.3606Z" fill="white"/>
<path d="M102.952 69.8505C98.4298 69.8845 93.9565 68.4869 90.055 65.774C90.0386 65.7624 90.0248 65.7462 90.0154 65.7269C89.9528 65.5995 83.808 52.7442 88.7707 31.6146C91.8149 18.6531 97.3792 10.862 101.511 6.60854C105.992 1.99544 109.808 0.428666 109.846 0.413363C109.885 0.397589 109.928 0.407324 109.959 0.438473C109.989 0.469004 113.008 3.55856 115.637 9.75581C118.061 15.4699 120.645 25.0763 119.188 38.3914C116.812 60.0973 106.877 69.37 106.777 69.4611C106.762 69.4749 106.744 69.484 106.724 69.4877C105.471 69.7209 104.21 69.841 102.952 69.8505ZM90.1991 65.5717C95.1247 68.9871 100.968 70.2891 106.658 69.2386C107.187 68.736 116.654 59.4544 118.963 38.3594C120.413 25.1141 117.847 15.562 115.439 9.8809C113.014 4.16078 110.26 1.11067 109.858 0.683543C109.346 0.906996 105.787 2.55078 101.653 6.80972C97.5476 11.0393 92.0178 18.788 88.9895 31.6815C84.1665 52.2162 89.8744 64.8789 90.1991 65.5717Z" fill="#102770"/>
<g opacity="0.3">
<path d="M117.359 14.9887C117.581 16.3387 117.759 17.7598 117.889 19.2473L115.193 15.9361L113.814 12.8515L113.703 13.2392C113.703 13.2392 114.334 15.4994 114.939 19.1467L112.149 18.6671L99.209 15.6696L94.9097 16.9915C94.9097 16.9915 105.994 17.7586 112.305 21.091C114.329 22.1594 115.678 24.4108 115.85 26.941C116.424 35.3308 115.819 46.1875 110.918 55.3965C110.815 55.5873 110.713 55.7745 110.61 55.958C110.604 55.9693 110.598 55.9807 110.591 55.9919C110.465 56.217 110.341 56.4345 110.216 56.6485C110.118 56.8153 110.022 56.9826 109.921 57.1482C109.752 57.4305 109.584 57.7045 109.419 57.9662C106.97 61.8522 102.863 63.9711 98.6849 63.4413C98.6628 63.4385 98.6407 63.4357 98.6186 63.4328C95.1282 62.9792 91.7371 61.6686 88.6919 59.5559C88.6919 59.5559 88.1642 58.4835 87.5371 56.4404C88.469 62.4177 90.0706 65.6696 90.0706 65.6696C93.1158 67.7822 96.5068 69.0929 99.9973 69.5465C102.209 69.834 104.459 69.7784 106.687 69.3644C106.687 69.3644 116.674 60.2884 119.073 38.3934C120.138 28.6759 119.084 20.9008 117.359 14.9887ZM117.896 19.3256C117.951 19.9649 117.996 20.6168 118.032 21.2816L117.896 19.3256Z" fill="#102770"/>
</g>
<path d="M119.002 21.3611C111.359 17.675 103.11 15.854 94.8 16.0182C101.554 3.91174 110.039 0.531489 110.039 0.531489C110.039 0.531489 116.774 7.27163 119.002 21.3611Z" fill="#EC1C24"/>
<g opacity="0.5">
<path d="M111.087 1.77975C110.412 0.919421 109.983 0.493219 109.983 0.493219C109.983 0.493219 101.541 3.89231 94.8544 15.9837C95.4809 15.9691 96.1071 15.9698 96.7329 15.9778C103.023 5.36931 110.494 2.03185 111.087 1.77975Z" fill="white"/>
</g>
<g opacity="0.3">
<path d="M119.002 21.3621C111.359 17.6749 103.11 15.8538 94.7996 16.0194C94.9226 15.7978 95.0471 15.5785 95.173 15.3634C101.135 14.5794 105.55 14.1958 110.631 15.2587C112.727 15.6973 114.485 13.44 113.797 11.1598C112.502 6.86488 110.862 3.29196 109.386 0.835214C109.806 0.625568 110.04 0.53203 110.04 0.53203C110.04 0.53203 116.774 7.27148 119.002 21.3621Z" fill="#102770"/>
</g>
<path d="M119.006 22.1689C118.91 22.1696 118.812 22.1483 118.721 22.1041C111.12 18.4383 103.08 16.6614 94.8122 16.8257C94.8095 16.8258 94.8068 16.8258 94.8044 16.8258C94.545 16.8278 94.3049 16.6706 94.1776 16.415C94.0487 16.1569 94.0556 15.8399 94.1955 15.5892C99.5857 5.92771 106.09 1.70451 108.636 0.337185C109.583 -0.171394 110.695 0.0739222 111.403 0.948234C113.307 3.29805 117.926 9.97712 119.704 21.2208C119.75 21.5124 119.651 21.8092 119.446 21.9936C119.318 22.108 119.163 22.1677 119.006 22.1689ZM96.1233 15.2031C103.675 15.2406 111.038 16.8662 118.046 20.043C116.187 10.0986 112.086 4.18013 110.35 2.0371C110.068 1.68936 109.626 1.59199 109.249 1.79391C106.927 3.04103 101.157 6.78024 96.1233 15.2031Z" fill="#102770"/>
<path d="M102.914 70.5313C101.249 70.5438 99.5861 70.3671 97.9382 70.001C95.008 69.3502 92.2304 68.1241 89.6827 66.3569C89.5786 66.2846 89.4925 66.183 89.4326 66.0619C89.1715 65.5323 83.0942 52.8457 88.1293 31.4686C89.5062 25.6219 91.5053 20.3127 94.0704 15.6885C94.1984 15.4579 94.42 15.3161 94.6599 15.3114C103.094 15.141 111.308 16.9673 119.067 20.7311C119.289 20.8352 119.454 21.0619 119.498 21.3371C120.344 26.7193 120.439 32.4937 119.78 38.4997C117.371 60.4601 107.541 69.6129 107.123 69.9919C107.028 70.0784 106.915 70.1357 106.794 70.158C105.505 70.3973 104.209 70.5216 102.914 70.5313ZM90.5924 65.0919C92.9493 66.6966 95.5113 67.8138 98.2109 68.4134C100.91 69.0128 103.654 69.0746 106.37 68.5967C107.56 67.4098 116.187 58.1808 118.368 38.2993C118.992 32.6151 118.922 27.152 118.163 22.0527C110.81 18.548 103.043 16.8203 95.0707 16.9226C92.6794 21.3217 90.8072 26.3541 89.504 31.8874C84.9456 51.2408 89.8827 63.483 90.5924 65.0919Z" fill="#102770"/>
<path d="M101.126 75.4291C97.7912 75.454 94.4915 74.5918 91.4978 72.9022C90.1411 72.1365 89.2708 70.6005 89.2266 68.8938L89.146 65.7803C89.1347 65.3364 89.4453 64.9661 89.8397 64.9533C89.8453 64.9531 89.8506 64.953 89.856 64.9529C90.2434 64.95 90.5639 65.296 90.5752 65.7338L90.6558 68.8473C90.6844 69.9618 91.2529 70.9648 92.1389 71.4648C95.3569 73.281 98.9555 74.0718 102.543 73.7521C103.531 73.6641 104.393 72.9755 104.792 71.9552L105.908 69.1045C106.067 68.6983 106.488 68.5137 106.85 68.6928C107.211 68.8718 107.375 69.3464 107.216 69.7528L106.1 72.6034C105.489 74.166 104.169 75.2206 102.656 75.3553C102.146 75.4008 101.635 75.4253 101.126 75.4291Z" fill="#102770"/>
<path d="M102.709 66.9719C101.668 73.0558 96.4284 78.1056 96.4284 78.1056C96.4284 78.1056 96.416 78.0791 96.3957 78.0305C96.0567 77.2666 93.3003 70.8037 94.2746 65.09C95.2108 59.6067 99.4341 55.9765 100.212 55.3488C100.292 55.2847 100.335 55.252 100.335 55.252C100.335 55.252 103.745 60.9294 102.709 66.9719Z" fill="#EC1C24"/>
<g opacity="0.5">
<path d="M95.4226 65.5992C96.207 60.8439 99.4321 57.4756 100.774 56.2537C100.465 55.6099 100.247 55.2433 100.247 55.2433C100.247 55.2433 100.204 55.2761 100.125 55.3405C99.3603 55.9702 95.2084 59.6114 94.304 65.095C93.3629 70.8091 96.103 77.2609 96.44 78.0233C96.4602 78.0718 96.4726 78.0983 96.4726 78.0983C96.4726 78.0983 96.7171 77.8577 97.1097 77.419C96.2642 75.1858 94.6717 70.1592 95.4226 65.5992Z" fill="white"/>
</g>
<path d="M99.9252 56.788L96.5989 77.3205L96.8651 75.6774C98.4552 73.6566 100.685 70.2582 101.311 66.4621C101.942 62.64 100.829 58.9711 99.9252 56.788Z" fill="#102770"/>
<path d="M96.4322 78.9133C96.3854 78.9137 96.3384 78.9088 96.2915 78.8983C96.0806 78.8512 95.8997 78.6976 95.7996 78.4805C95.6645 78.1871 92.5013 71.2243 93.5757 64.9341C94.6527 58.6295 99.7299 54.7412 99.9453 54.5788C100.269 54.3351 100.702 54.4326 100.921 54.7964C101.067 55.0396 104.49 60.8245 103.409 67.1283C102.332 73.418 97.1067 78.509 96.8849 78.7227C96.7571 78.8456 96.5965 78.9121 96.4322 78.9133ZM100.135 56.4333C98.8213 57.6182 95.7239 60.8211 94.9683 65.2442C94.2108 69.6787 95.8608 74.6936 96.6573 76.7596C98.076 75.1878 101.257 71.2511 102.017 66.8171C102.775 62.3949 100.961 58.0963 100.135 56.4333Z" fill="#102770"/>
<g opacity="0.3">
<path d="M114.063 34.0094C113.135 39.3904 108.532 42.9 103.781 41.8485C99.0303 40.797 95.9309 35.5824 96.8583 30.2015C97.7858 24.8206 102.389 21.311 107.14 22.3625C111.891 23.414 114.99 28.6285 114.063 34.0094Z" fill="#102770"/>
</g>
<path d="M112.387 32.9628C111.553 37.8016 107.414 40.9576 103.142 40.012C98.8694 39.0664 96.0822 34.3771 96.9162 29.5384C97.7502 24.6996 101.89 21.5435 106.162 22.4891C110.434 23.4348 113.221 28.124 112.387 32.9628Z" fill="#EC1C24"/>
<g opacity="0.5">
<path d="M97.8525 30.313C98.6654 25.4821 102.773 22.3187 107.028 23.2473C108.014 23.4624 108.919 23.8805 109.721 24.4528C108.722 23.4854 107.497 22.7881 106.116 22.4867C101.861 21.5581 97.7534 24.7215 96.9404 29.5524C96.3159 33.2638 97.8194 36.8776 100.478 38.7751C98.3993 36.7626 97.3034 33.5756 97.8525 30.313Z" fill="white"/>
</g>
<g opacity="0.3">
<path d="M112.388 32.974C111.554 37.8145 107.42 40.9745 103.15 40.0279C101.808 39.7299 100.612 39.0612 99.6297 38.1336C100.162 38.4012 100.727 38.6062 101.323 38.7388C105.592 39.6854 109.729 36.5276 110.562 31.6851C111.133 28.3652 110.002 25.1151 107.859 23.0975C111.142 24.7489 113.105 28.8058 112.388 32.974Z" fill="#102770"/>
</g>
<path d="M104.727 40.8241C104.165 40.8284 103.598 40.7688 103.033 40.6438C100.818 40.1536 98.9033 38.7156 97.6427 36.5947C96.3822 34.4739 95.9261 31.9242 96.3587 29.4153C97.2514 24.2358 101.698 20.8455 106.271 21.8577C108.486 22.3479 110.4 23.7859 111.661 25.9067C112.922 28.0275 113.378 30.5773 112.945 33.0862C112.513 35.5952 111.244 37.7633 109.371 39.1907C107.977 40.2542 106.371 40.8117 104.727 40.8241ZM104.6 22.9665C101.193 22.9922 98.1517 25.732 97.4741 29.6621C97.0999 31.8337 97.4946 34.0404 98.5856 35.8759C99.6766 37.7115 101.333 38.9562 103.251 39.3804C107.207 40.256 111.057 37.3225 111.83 32.8394C112.204 30.6678 111.809 28.4611 110.718 26.6255C109.627 24.79 107.97 23.5453 106.053 23.121C105.565 23.0131 105.079 22.9629 104.6 22.9665Z" fill="#102770"/>
<path d="M109.499 32.2142C108.969 35.2926 106.336 37.3003 103.618 36.6987C100.9 36.0971 99.1264 33.1139 99.657 30.0355C100.187 26.9572 102.821 24.9494 105.539 25.5511C108.257 26.1527 110.03 29.1359 109.499 32.2142Z" fill="#6BD6F0"/>
<path d="M104.625 36.9354C104.284 36.9379 103.94 36.9017 103.597 36.8258C102.253 36.5277 101.091 35.6547 100.326 34.3673C99.5608 33.08 99.2839 31.5325 99.5459 30.0097C100.087 26.8662 102.783 24.809 105.56 25.4242C106.904 25.7222 108.066 26.5952 108.831 27.8825C109.596 29.17 109.873 30.7176 109.611 32.2403C109.349 33.763 108.579 35.0786 107.443 35.9446C106.597 36.5899 105.623 36.9281 104.625 36.9354ZM104.543 25.5732C102.26 25.5898 100.222 27.4254 99.7691 30.0591C99.5185 31.5143 99.7834 32.9934 100.515 34.2237C101.246 35.4539 102.356 36.2882 103.641 36.5729C104.926 36.8578 106.231 36.5587 107.316 35.731C108.402 34.9033 109.137 33.646 109.388 32.1908C109.638 30.7356 109.374 29.2566 108.642 28.0263C107.911 26.796 106.801 25.9616 105.516 25.677C105.189 25.6044 104.864 25.5708 104.543 25.5732Z" fill="black"/>
<g opacity="0.4">
<path d="M109.485 32.2076C108.968 35.2843 106.359 37.2979 103.657 36.7064C103.071 36.5791 102.529 36.3389 102.045 36.0091C102.099 36.0235 102.153 36.0361 102.209 36.0488C104.911 36.6403 107.521 34.6268 108.037 31.55C108.443 29.1395 107.443 26.7931 105.691 25.6055C108.301 26.2786 109.99 29.1942 109.485 32.2076Z" fill="white"/>
</g>
<g opacity="0.3">
<path d="M107.518 26.4372C107.434 26.4149 107.351 26.3926 107.265 26.3739C104.55 25.7716 101.92 27.7805 101.39 30.8623C100.99 33.1815 101.895 35.4482 103.525 36.6816C100.954 35.9547 99.3097 33.0591 99.8232 30.0745C100.353 26.9947 102.982 24.9836 105.696 25.5859C106.368 25.736 106.983 26.0297 107.518 26.4372Z" fill="#102770"/>
</g>
<path d="M104.628 37.4497C104.256 37.4525 103.882 37.4132 103.509 37.3305C102.045 37.0065 100.781 36.0565 99.9476 34.6554C99.1147 33.2542 98.8135 31.5697 99.0991 29.9121C99.6889 26.4905 102.625 24.2499 105.648 24.9194C107.111 25.2433 108.376 26.1935 109.209 27.5946C110.042 28.9958 110.343 30.6803 110.057 32.3378C109.772 33.9953 108.933 35.4275 107.696 36.3707C106.775 37.0732 105.714 37.4415 104.628 37.4497ZM104.546 26.0888C102.475 26.1043 100.626 27.7699 100.215 30.159C99.987 31.4791 100.227 32.8207 100.89 33.9365C101.554 35.0525 102.561 35.8091 103.727 36.0671C104.892 36.3255 106.076 36.0537 107.061 35.3027C108.047 34.5516 108.714 33.411 108.942 32.0909C109.411 29.3657 107.836 26.7154 105.43 26.1827C105.133 26.1171 104.838 26.0866 104.546 26.0888Z" fill="#102770"/>
<path d="M92.2291 61.6859C92.1642 60.8114 91.325 60.3008 90.6477 60.7267C88.2608 62.2274 84.26 66.7657 80.4974 79.101C73.7308 101.285 56.2387 96.9399 56.2387 96.9399L54.3673 103.763C54.3673 103.763 77.05 106.697 83.7523 79.5221C86.612 67.9272 90.3466 63.8767 91.7632 62.7894C92.0835 62.5436 92.2615 62.1227 92.2291 61.6859Z" fill="white"/>
<path d="M56.4494 103.979C55.1535 103.989 54.3751 103.893 54.3544 103.891C54.3207 103.886 54.2905 103.865 54.2719 103.833C54.2535 103.801 54.2486 103.761 54.2586 103.725L56.1302 96.9019C56.1476 96.8382 56.2044 96.8001 56.2631 96.8143C56.3064 96.825 60.6755 97.8743 65.8088 96.2126C70.5412 94.6803 76.9123 90.4605 80.39 79.0591C84.3405 66.1081 88.4778 61.9437 90.5924 60.6141C90.9432 60.3937 91.3645 60.3895 91.7196 60.604C92.0757 60.8192 92.3085 61.2196 92.3423 61.6752C92.3781 62.1568 92.1807 62.6246 91.827 62.896C90.7113 63.7525 86.8391 67.485 83.8618 79.5568C80.3867 93.6474 72.5484 99.5139 66.585 101.954C62.4903 103.63 58.6938 103.962 56.4494 103.979ZM54.5172 103.65C55.4215 103.738 60.66 104.108 66.5164 101.708C72.4265 99.2877 80.1951 93.4675 83.643 79.4876C86.641 67.3313 90.5676 63.5518 91.6996 62.6829C91.9853 62.4636 92.1448 62.0856 92.1161 61.6968C92.0885 61.3287 91.9006 61.005 91.6127 60.8311C91.3264 60.6581 90.9865 60.6614 90.7028 60.8393C88.6167 62.151 84.5306 66.2732 80.6049 79.1432C77.0935 90.6549 70.6494 94.9159 65.8618 96.4633C61.1132 97.9978 57.0104 97.2365 56.3169 97.0888L54.5172 103.65Z" fill="#102770"/>
<g opacity="0.35">
<path d="M91.763 62.7911C90.3474 63.879 86.6114 67.9284 83.7521 79.5245C77.0498 106.697 54.3651 103.762 54.3651 103.762L55.2939 100.379C58.8817 100.614 76.9939 103.153 83.4695 75.9321C85.5898 67.0192 89.5789 63.0981 91.5845 61.3445C92.2356 61.0547 92.1687 60.8702 92.2294 61.6892C92.2615 62.1246 92.0842 62.5463 91.763 62.7911Z" fill="#102770"/>
</g>
<path d="M56.5111 104.667C55.189 104.677 54.3737 104.577 54.2864 104.565C54.0753 104.538 53.886 104.405 53.77 104.204C53.6538 104.002 53.6232 103.753 53.6862 103.523L55.5578 96.7003C55.6677 96.2999 56.0301 96.0614 56.3914 96.1512C56.4331 96.1616 60.699 97.1766 65.6931 95.5439C72.3518 93.3671 77.106 87.7462 79.8234 78.8373C83.839 65.6725 88.1119 61.3972 90.3015 60.0205C90.831 59.6875 91.4665 59.6815 92.0016 60.005C92.5379 60.3291 92.8888 60.9322 92.9398 61.6184L92.9398 61.6185C92.9934 62.3443 92.696 63.0491 92.1633 63.458C91.0901 64.2817 87.3616 67.8901 84.4392 79.7397C80.8954 94.1086 72.8847 100.098 66.7889 102.593C62.6112 104.302 58.8013 104.649 56.5111 104.667ZM55.3168 103.024C57.1248 103.104 61.5317 103.039 66.3578 101.051C74.7365 97.6006 80.3578 90.2841 83.0655 79.3048C86.1184 66.9262 90.1885 63.0225 91.3631 62.1208C91.4696 62.0391 91.5294 61.8981 91.5185 61.7534C91.5038 61.5552 91.3822 61.4613 91.3305 61.4301C91.2675 61.3919 91.1391 61.3414 90.9938 61.4329C88.9825 62.6975 85.032 66.7088 81.1715 79.365C77.5758 91.1528 70.951 95.5245 66.0265 97.1162C61.8162 98.4769 58.1713 98.0992 56.7338 97.8576L55.3168 103.024Z" fill="#102770"/>
<path d="M51.8637 113.374C55.189 113.949 61.0402 111.909 61.0402 111.909C63.2245 110.976 64.7598 108.6 64.9084 105.923L66.083 84.762C66.2283 82.1449 65.0194 79.7558 63.0151 78.6991L55.617 75.887" fill="white"/>
<g opacity="0.3">
<path d="M65.5066 82.9446L64.7007 101.018C64.5847 103.65 63.072 105.991 60.8897 106.915C60.8897 106.915 58.7473 107.924 56.5584 104.627L51.8392 113.391L52.5963 111.985C55.9938 112.166 61.0048 110.431 61.0048 110.431C63.1871 109.507 64.6999 107.166 64.8175 104.535L65.7296 84.0536C65.7746 84.4355 65.789 84.8267 65.7711 85.2233C65.8067 84.4318 65.7142 83.6613 65.5066 82.9446Z" fill="#102770"/>
</g>
<path d="M43.5145 111.397L51.3065 112.499C53.6046 112.824 55.7356 110.732 55.8861 108.003L57.4511 79.6197C57.5866 77.1638 56.0021 75.1402 53.909 75.096L45.6001 74.9207L43.5145 111.397Z" fill="white"/>
<path d="M52.6518 112.537C52.2065 112.652 51.7471 112.681 51.293 112.617L43.5008 111.516C43.4468 111.508 43.4085 111.454 43.4122 111.39L45.4894 74.924C45.4912 74.8909 45.5043 74.8596 45.5255 74.8365C45.5468 74.8133 45.575 74.8004 45.6028 74.8016L53.9118 74.9759C56.0586 75.0208 57.6926 77.1063 57.5543 79.6244L55.9958 108C55.9224 109.335 55.3669 110.606 54.4718 111.484C53.938 112.008 53.3102 112.367 52.6518 112.537ZM43.6314 111.282L51.3287 112.369C52.3948 112.52 53.4917 112.129 54.3394 111.296C55.1873 110.464 55.7134 109.261 55.783 107.996L57.3415 79.6207C57.4722 77.2397 55.9274 75.268 53.8977 75.2254L45.695 75.0534L43.6314 111.282Z" fill="#102770"/>
<path d="M42.0249 109.078L42.3773 109.14L42.5638 103.094L42.0249 109.078Z" fill="white"/>
<path d="M42.4031 109.257C42.3909 109.26 42.3785 109.26 42.3662 109.258L42.0162 109.198C41.9614 109.189 41.9239 109.132 41.9296 109.066L42.4418 103.095C42.4477 103.026 42.498 102.972 42.5578 102.972C42.6164 102.973 42.6616 103.028 42.6598 103.097L42.4974 109.127C42.4964 109.165 42.4812 109.202 42.4559 109.227C42.4404 109.242 42.4222 109.253 42.4031 109.257ZM42.1568 108.961L42.2832 108.982L42.3418 106.805L42.1568 108.961Z" fill="#102770"/>
<path d="M54.7796 81.6944C54.9109 79.5666 53.5542 77.8389 51.7476 77.8339L45.0421 77.8161L46.2397 77.8193L44.7618 101.027L44.6992 102.021L44.6711 107.904L44.661 110.219C44.661 110.219 52.3806 111.433 54.1222 110.621C54.4557 110.466 54.8084 110.24 55.1542 109.941C55.9475 108.505 56.389 106.442 55.858 103.683C55.858 103.683 55.3686 104.333 54.0281 104.476C54.0271 104.476 54.026 104.476 54.025 104.476C53.6724 104.512 53.3945 104.176 53.42 103.761L54.7796 81.6944Z" fill="#102770"/>
<g opacity="0.4">
<path d="M42.619 103.094L42.7101 102.076C42.6715 102.066 42.6507 102.062 42.6507 102.062L42.619 103.094Z" fill="#293856"/>
<path d="M42.646 103.211C42.639 103.213 42.6318 103.214 42.6244 103.214C42.5667 103.214 42.5215 103.161 42.5224 103.092L42.5354 102.074C42.536 102.036 42.5508 102 42.5762 101.974C42.6015 101.949 42.6343 101.938 42.6659 101.944L42.7269 101.957C42.7781 101.968 42.8125 102.022 42.8081 102.085L42.7368 103.09C42.7324 103.15 42.6941 103.199 42.646 103.211Z" fill="#102770"/>
</g>
<path d="M58.6706 113.384C56.6276 113.914 53.7846 114.466 51.7599 114.117C51.3972 114.055 51.1604 113.659 51.2308 113.232C51.3014 112.806 51.6527 112.511 52.0151 112.573C55.0618 113.098 60.5077 111.264 60.8797 111.137C62.8037 110.305 64.1282 108.247 64.2565 105.886L65.4041 84.76C65.5285 82.4687 64.4791 80.3898 62.7282 79.4525L55.3601 76.6625C55.0138 76.5314 54.8373 76.0923 54.9661 75.6818C55.095 75.2714 55.4796 75.0449 55.8262 75.1761L63.2286 77.979C63.2508 77.9875 63.2725 77.9971 63.2936 78.0083C65.5461 79.1914 66.8985 81.8519 66.7392 84.786L65.5916 105.912C65.4277 108.928 63.7301 111.557 61.2668 112.608C61.2538 112.614 61.2405 112.619 61.2272 112.624C61.1265 112.659 60.0922 113.016 58.6706 113.384Z" fill="#102770"/>
<path d="M52.7695 113.15C52.2621 113.281 51.7388 113.314 51.2215 113.242L43.4278 112.147C43.0894 112.099 42.849 111.758 42.8714 111.357L44.9075 74.9419C44.9191 74.7346 45.0005 74.5372 45.1339 74.3931C45.267 74.249 45.4417 74.1703 45.6187 74.1737L53.9279 74.3429C56.3834 74.393 58.2551 76.7736 58.1 79.6499L56.5735 107.985C56.4916 109.505 55.8604 110.95 54.8416 111.951C54.2341 112.547 53.5194 112.956 52.7695 113.15ZM44.2459 110.677L51.4435 111.689C52.3527 111.817 53.2882 111.483 54.0105 110.774C54.7328 110.064 55.1804 109.039 55.2384 107.962L56.7649 79.6265C56.8735 77.6105 55.5616 75.9416 53.8405 75.9066L46.1986 75.751L44.2459 110.677Z" fill="#102770"/>
<path d="M19.5902 124.89C19.5902 124.89 22.5924 126.507 25.8351 122.206C26.7381 121.009 27.5545 118.482 27.9719 116.017C49.121 119.442 53.6721 96.9968 49.9113 80.4354C49.5776 78.9615 49.1565 77.5325 48.6513 76.1682C47.7772 73.8057 46.6468 71.6402 45.2651 69.781L34.5915 64.6474C34.5915 64.6474 26.0906 69.1673 20.9497 83.7461C18.7877 89.8769 19.6664 96.3936 20.3051 101.783C18.7251 102.7 17.3644 104.11 16.6489 106.25C15.5804 109.447 18.0626 117.097 18.0626 117.097C18.0626 117.097 14.3795 116.701 14.1213 120.033C13.863 123.364 19.5902 124.89 19.5902 124.89Z" fill="white"/>
<g opacity="0.4">
<path d="M32.8599 79.9104C40.45 82.7391 48.7374 81.8604 51.9841 81.3446C51.6319 79.9425 51.1872 78.5775 50.6534 77.2684L32.8599 79.9104Z" fill="#293856"/>
<path d="M51.9993 81.4407C51.9988 81.4408 51.9984 81.4408 51.9977 81.441C48.7717 81.9589 40.4458 82.8586 32.8282 80.0335C32.7794 80.0153 32.7483 79.9666 32.7525 79.9148C32.757 79.8631 32.7993 79.8247 32.8466 79.8138L50.6234 77.1441C50.6754 77.1363 50.7269 77.1658 50.7472 77.2154C51.2807 78.5193 51.7318 79.8943 52.0875 81.3024C52.0953 81.3333 52.09 81.3657 52.0731 81.3919C52.0564 81.4178 52.0297 81.4354 51.9993 81.4407ZM33.327 79.9729C40.6834 82.5599 48.6086 81.7425 51.8373 81.2349C51.4969 79.9095 51.0716 78.6147 50.5722 77.383L33.327 79.9729Z" fill="#102770"/>
</g>
<path d="M15.1215 113.985C15.2581 113.997 15.3365 114.011 15.3365 114.011C15.3365 114.011 14.9762 112.59 14.6492 110.687C14.7639 111.852 14.9423 113.001 15.1215 113.985Z" fill="white"/>
<path d="M15.3518 114.127C15.3398 114.129 15.3275 114.13 15.3153 114.128C15.3126 114.127 15.2405 114.115 15.1163 114.106C15.0682 114.103 15.029 114.065 15.0191 114.011C14.8034 112.846 14.641 111.739 14.5362 110.721C14.5291 110.653 14.5707 110.588 14.6303 110.573C14.6829 110.554 14.7461 110.6 14.7579 110.667C15.0838 112.53 15.4425 113.943 15.446 113.957C15.457 114 15.4472 114.047 15.4205 114.082C15.4022 114.106 15.3778 114.122 15.3518 114.127Z" fill="#102770"/>
<g opacity="0.3">
<path d="M18.9468 124.995C18.9468 124.995 22.033 126.583 25.2804 122.46C26.1847 121.312 26.9819 118.88 27.3728 116.504C46.1814 119.59 54.0182 102.712 49.4654 85.614C50.4776 90.7832 41.1615 88.4324 43.8577 91.5575C52.3263 101.373 39.7657 112.465 27.3563 110.907C26.4235 110.79 25.577 111.523 25.4761 112.527C25.2641 114.639 24.7757 117.466 23.6909 119.357C21.0539 123.952 18.3634 122.473 18.3634 122.473C18.3634 122.473 14.881 121.568 13.3825 119.682C13.3405 119.859 13.3125 120.052 13.298 120.258C13.0817 123.472 18.9468 124.995 18.9468 124.995Z" fill="#102770"/>
</g>
<path d="M37.6443 117.575C34.8143 118.298 31.6412 118.374 28.1824 117.784C27.8168 117.722 27.5745 117.334 27.6413 116.918C27.708 116.502 28.0584 116.214 28.4243 116.277C35.8901 117.55 41.901 115.569 45.8073 110.548C51.202 103.615 52.1886 91.3976 48.5145 77.03C48.412 76.6294 48.6187 76.2001 48.976 76.0712C49.3306 75.9416 49.7062 76.1624 49.8085 76.5633C53.6137 91.4438 52.519 104.191 46.805 111.535C44.4129 114.61 41.3174 116.637 37.6443 117.575Z" fill="#102770"/>
<path d="M19.9124 101.291C19.5904 101.371 19.271 101.168 19.169 100.797C17.1908 93.615 18.4187 86.9151 19.7971 82.5593C21.2869 77.8517 23.2226 74.8645 23.3043 74.7397C23.5375 74.383 23.9609 74.3016 24.2498 74.5575C24.5388 74.8133 24.5839 75.3097 24.3508 75.6663C24.259 75.8075 16.8973 87.3302 20.4501 100.23C20.563 100.639 20.3678 101.099 20.014 101.256C19.9802 101.271 19.9463 101.282 19.9124 101.291Z" fill="#102770"/>
<path d="M54.1984 70.7531C55.4976 71.0093 57.8088 74.6762 53.8991 77.6607C50.9599 79.9042 42.7013 80.956 33.2422 79.6568" fill="white"/>
<path d="M48.5692 79.7488C44.4848 80.5119 38.9631 80.5639 33.238 79.7831C33.1762 79.7747 33.132 79.7172 33.1393 79.655C33.1464 79.5926 33.2027 79.5487 33.2644 79.5575C42.0933 80.7614 50.7398 79.9218 53.825 77.5608C56.1178 75.8059 56.0727 73.954 55.8419 73.0063C55.5536 71.8238 54.7491 70.9689 54.1689 70.8551C54.1076 70.8431 54.0667 70.7832 54.0777 70.7215C54.0886 70.6596 54.1473 70.6196 54.2084 70.6316C54.8578 70.759 55.7508 71.6839 56.0608 72.9555C56.3048 73.9571 56.3569 75.9111 53.9632 77.7432C52.8014 78.6324 50.9237 79.3088 48.5692 79.7488Z" fill="#102770"/>
<path d="M54.1984 70.7531C55.4976 71.0093 57.8088 74.6763 53.8991 77.6607C50.9599 79.9043 42.7013 80.956 33.2422 79.6568L54.1984 70.7531Z" fill="white"/>
<g opacity="0.3">
<path d="M54.8756 71.0155C55.3166 72.4006 55.0709 74.2915 52.8584 75.9507C50.3421 77.8387 43.9719 78.838 36.2919 78.2528L54.8756 71.0155Z" fill="#102770"/>
</g>
<path d="M54.2777 69.9932C54.8224 70.1116 55.1433 70.3766 55.4371 70.6409C55.7199 70.9133 55.9481 71.2148 56.1387 71.5361C56.5176 72.1786 56.7287 72.9118 56.7648 73.6564C56.8015 74.4012 56.6411 75.1504 56.3315 75.7988C56.0307 76.4557 55.5926 77.0092 55.1162 77.4881C54.8763 77.7272 54.6216 77.9434 54.3607 78.1475C54.2275 78.2484 54.0786 78.337 53.9379 78.4314C53.7941 78.5199 53.6548 78.6272 53.5059 78.6935C52.9211 79.0068 52.323 79.2536 51.719 79.4572C51.4156 79.5499 51.1147 79.6581 50.8095 79.7366L49.8942 79.9682C49.2804 80.0917 48.6683 80.2243 48.0513 80.3074C45.5891 80.6946 43.1073 80.7571 40.6398 80.6947C38.1709 80.6297 35.712 80.3698 33.2773 79.9854C33.1395 79.9636 33.0433 79.8329 33.0626 79.6934C33.0814 79.5584 33.2023 79.4648 33.3349 79.4785C35.7652 79.7335 38.2045 79.8299 40.6321 79.7973L41.5419 79.779C41.8451 79.7705 42.1474 79.7501 42.4501 79.7363C43.0557 79.7135 43.6583 79.66 44.2603 79.6094C44.5621 79.5888 44.8612 79.5508 45.1607 79.5158C45.46 79.4801 45.7605 79.4519 46.0586 79.4114C46.6528 79.3197 47.2504 79.2446 47.836 79.1221C48.4273 79.021 49.0041 78.8731 49.5828 78.7357L50.434 78.4873C50.7171 78.4039 50.987 78.2939 51.264 78.1992C51.809 77.9938 52.3319 77.7526 52.8137 77.4725C52.943 77.411 53.0414 77.3219 53.155 77.2472C53.2647 77.1674 53.3773 77.0971 53.4852 77.0114C53.7017 76.8345 53.9097 76.6506 54.099 76.4539C54.4746 76.0603 54.7979 75.6282 54.9993 75.1583C55.1077 74.926 55.1766 74.6831 55.2274 74.4397C55.2779 74.1961 55.3015 73.9476 55.2885 73.6995C55.2683 73.2038 55.12 72.7078 54.8766 72.2721C54.7558 72.055 54.6083 71.8536 54.448 71.6907C54.2938 71.5328 54.0968 71.413 54.0357 71.398L53.984 71.3852C53.6045 71.2918 53.3669 70.9054 53.4532 70.5222C53.538 70.1457 53.905 69.9125 54.2777 69.9932Z" fill="#102770"/>
<path d="M12.4072 51.6544C12.8087 65.4676 24.4173 76.0163 38.3357 75.2154C52.2541 74.4146 63.2117 62.5676 62.8102 48.7544C62.4086 34.9412 50.8001 24.3925 36.8817 25.1933C22.9633 25.9942 12.0057 37.8411 12.4072 51.6544Z" fill="white"/>
<g opacity="0.3">
<path d="M38.0338 75.3232C49.3078 74.7152 58.6256 66.9921 61.5864 56.8506C57.3673 64.2169 49.5 69.406 40.344 69.8996C26.3525 70.653 14.6492 60.1634 14.202 46.4698C14.1145 43.8112 14.4599 41.2274 15.173 38.7845C12.9476 42.6717 11.7389 47.1645 11.8936 51.8947C12.3393 65.5887 24.0441 76.0779 38.0338 75.3232Z" fill="#102770"/>
</g>
<path d="M43.1878 75.2412C41.6153 75.6288 39.9993 75.8737 38.3554 75.9685C24.0865 76.7903 12.143 65.9015 11.7312 51.6956C11.7312 51.6955 11.7312 51.6955 11.7312 51.6955C11.3194 37.4894 22.5928 25.2635 36.8618 24.4412C43.7608 24.0438 50.3276 26.3404 55.3523 30.9079C60.3976 35.4939 63.2863 41.8176 63.4861 48.7141C63.6861 55.6107 61.1731 62.2456 56.41 67.3966C52.7966 71.3044 48.2152 74.0019 43.1878 75.2412ZM13.0886 51.6173C13.4764 64.9988 24.7916 75.2517 38.312 74.4729C44.8747 74.0951 50.9681 71.206 55.4691 66.338C59.9513 61.4909 62.3162 55.2598 62.1287 48.7924C61.9414 42.3249 59.2235 36.3866 54.4761 32.0712C49.7081 27.7374 43.4679 25.5587 36.9053 25.9367C23.3841 26.7151 12.7008 38.2359 13.0886 51.6173Z" fill="#102770"/>
<path d="M33.8693 71.6281C30.4558 72.4901 26.8029 72.397 23.297 71.299C23.263 71.2884 23.2299 71.2748 23.198 71.2582C22.2009 70.7412 21.2314 70.1261 20.3164 69.43C19.9782 69.1695 19.685 68.9324 19.417 68.7025C18.8327 68.2044 18.2613 67.6591 17.7205 67.0833C15.1644 64.3595 13.2804 60.8974 12.2721 57.0713C10.4534 50.1704 11.548 42.7561 15.2753 36.7292C17.4302 33.2428 20.358 30.436 23.7421 28.6122C23.7846 28.5893 23.8289 28.5713 23.8744 28.5586C26.5226 27.8172 29.4388 27.7644 32.5463 28.3993C38.0838 29.5307 43.23 33.5395 46.3121 39.1227C49.1469 44.2576 49.9634 50.1143 48.6111 55.6137C47.1421 61.5862 43.9686 66.2882 39.4335 69.2115C37.7065 70.3249 35.8271 71.1337 33.8693 71.6281ZM23.7444 69.8561C28.9002 71.4549 34.3795 70.7444 38.785 67.9043C42.993 65.1917 45.9409 60.8156 47.3099 55.249C48.5614 50.1599 47.7973 44.7248 45.1586 39.9448C42.2667 34.7064 37.4482 30.9471 32.269 29.8888C29.3777 29.2982 26.6751 29.3366 24.2356 30.0079C21.097 31.7147 18.3813 34.3274 16.3782 37.5683C12.89 43.2084 11.8657 50.1473 13.5679 56.6058C14.5113 60.1856 16.2737 63.4245 18.6646 65.9723C19.171 66.5114 19.706 67.022 20.2544 67.4895C20.5061 67.7054 20.7817 67.9283 21.0985 68.1722C21.9374 68.8105 22.8283 69.3776 23.7444 69.8561Z" fill="#102770"/>
<path d="M33.2864 69.0343C26.6421 70.6999 19.5274 68.2009 14.542 62.3925C14.5098 62.355 14.4822 62.313 14.4601 62.2672L13.4164 60.1133C13.4045 60.0888 13.3943 60.0634 13.3857 60.0372C13.3362 59.887 12.1665 56.3142 11.541 52.4376C10.8997 48.4638 12.4232 43.2015 12.4884 42.9794C12.497 42.95 12.5076 42.9214 12.5201 42.8937C16.9241 33.1491 23.5008 29.0934 32.0675 30.8382C36.9884 31.8406 41.5662 35.3849 44.313 40.3193C46.8384 44.8559 47.5728 50.0284 46.3807 54.8838C44.6594 61.8943 40.1731 66.9727 34.0719 68.8173C33.8109 68.8961 33.549 68.9685 33.2864 69.0343ZM15.3779 61.6061C20.2923 67.2928 27.3516 69.6113 33.8143 67.6577C39.5254 65.931 43.727 61.1693 45.3414 54.5936C46.4536 50.064 45.7617 45.2263 43.3932 40.9716C40.7986 36.3109 36.4827 32.9649 31.848 32.021C23.8289 30.3875 17.6556 34.2059 13.5002 43.3694C13.3581 43.8724 12.038 48.7005 12.6021 52.196C13.177 55.7586 14.2581 59.1625 14.3863 59.5596L15.3779 61.6061Z" fill="#102770"/>
<g opacity="0.3">
<path d="M51.2722 67.2727C54.7666 67.2382 57.6532 63.1813 57.7175 58.2112C57.7222 57.8809 57.7135 57.554 57.6917 57.2323C56.6876 60.4658 54.4122 62.75 51.7925 62.7775C48.5291 62.8106 45.8866 59.3242 45.6043 54.818C45.267 55.901 45.0737 57.0914 45.0571 58.3384C44.9929 63.3085 47.7764 67.3095 51.2722 67.2727Z" fill="#102770"/>
</g>
<path d="M20.4533 125.889C18.7389 126.276 17.0435 125.797 15.5354 125.282C14.1789 124.818 12.4467 124.006 11.6531 123.118C10.587 121.924 10.4234 120.306 11.2365 118.996C12.2228 117.407 14.6288 116.341 17.7801 117.541C18.1386 117.677 18.3238 118.095 18.1937 118.475C18.0635 118.854 17.6678 119.051 17.3092 118.915C14.8792 117.989 13.0558 118.722 12.3902 119.795C11.9205 120.552 12.0181 121.397 12.658 122.113C13.1572 122.672 14.4855 123.387 15.9632 123.892C18.117 124.628 19.7677 124.904 21.3398 124.001C24.8073 122.011 25.5355 113.731 25.5425 113.648C25.5759 113.246 25.9113 112.948 26.2906 112.983C26.6704 113.017 26.9512 113.37 26.918 113.772C26.8872 114.144 26.1164 122.919 21.996 125.284C21.4832 125.578 20.9673 125.772 20.4533 125.889Z" fill="#102770"/>
<path d="M17.206 117.808C16.9592 117.871 16.6955 117.775 16.5358 117.537C12.6944 111.814 13.7386 106.934 14.1501 105.575C16.05 99.3012 24.3818 98.6538 24.7353 98.629C25.1071 98.6033 25.4174 98.9225 25.4287 99.3421C25.44 99.7615 25.1492 100.122 24.7762 100.148C24.6988 100.154 17.0189 100.757 15.4231 106.028C15.0659 107.207 14.1689 111.454 17.6182 116.594C17.8396 116.923 17.7766 117.402 17.4778 117.663C17.3945 117.735 17.3015 117.783 17.206 117.808Z" fill="#102770"/>
<path d="M54.5387 29.5189C54.4164 29.5401 54.2864 29.5291 54.1607 29.4806C43.9361 25.5284 38.0047 30.0959 37.7576 30.2925C37.4524 30.5346 37.0047 30.4793 36.7571 30.1685C36.5093 29.8578 36.5537 29.4098 36.8572 29.1662C37.1282 28.9486 43.6244 23.8856 54.648 28.1467C55.0171 28.2894 55.2074 28.7038 55.073 29.0721C54.9843 29.3153 54.7762 29.4777 54.5387 29.5189Z" fill="#102770"/>
<g opacity="0.4">
<path d="M60.6087 105.584C60.7913 105.589 60.9708 105.568 61.1417 105.525C62.0806 105.287 62.8141 104.377 62.8886 103.26L63.1874 98.8084L62.2341 98.7557L62.0662 101.268C61.9916 102.385 61.2567 103.296 60.3193 103.533C60.1468 103.576 59.9688 103.597 59.7862 103.592C59.316 103.58 58.8886 103.401 58.5469 103.107C58.4946 104.445 59.4144 105.552 60.6087 105.584Z" fill="#102770"/>
</g>
<path d="M61.2722 106.1C61.0551 106.156 60.8288 106.182 60.5971 106.176C59.8739 106.158 59.2104 105.82 58.7287 105.224C58.2472 104.628 58.006 103.847 58.0496 103.025L58.2911 98.4728C58.2996 98.3091 58.366 98.1541 58.4749 98.0429C58.584 97.9317 58.7269 97.8732 58.8701 97.8814L63.2685 98.1278C63.5629 98.1443 63.7823 98.4289 63.7586 98.764L63.4424 103.251C63.3426 104.666 62.4387 105.801 61.2722 106.1ZM59.328 99.1275L59.1195 103.058C59.0932 103.554 59.2387 104.025 59.5294 104.385C59.8199 104.744 60.2204 104.948 60.6568 104.96C61.5486 104.982 62.3026 104.207 62.374 103.194L62.6473 99.3135L59.328 99.1275Z" fill="#102770"/>
<path d="M26.7508 115.168C26.5725 115.21 26.3799 115.149 26.2536 114.99C26.2065 114.931 21.5016 109.093 17.3519 108.869C15.1591 108.751 14.48 109.731 14.4523 109.773C14.289 110.019 13.9703 110.085 13.74 109.917C13.5097 109.748 13.4455 109.416 13.5997 109.163C13.6382 109.1 14.5798 107.611 17.4134 107.764C22.0015 108.012 26.8334 114.01 27.037 114.266C27.2208 114.496 27.1945 114.845 26.9783 115.045C26.9106 115.108 26.8322 115.149 26.7508 115.168Z" fill="#102770"/>
<path d="M54.6321 47.9699C54.6321 47.9699 55.0893 47.9646 52.2948 47.9969C48.7308 48.0381 45.747 51.7164 45.6303 56.2125C45.5136 60.7087 48.3083 64.3201 51.8723 64.2789C54.7523 64.2456 54.2096 64.2519 54.2096 64.2519" fill="white"/>
<path d="M54.2492 64.3709L54.2089 64.3713C54.2002 64.3714 54.1919 64.3703 54.1838 64.3682C54.1084 64.3725 54.0003 64.3738 53.8449 64.3755L51.8711 64.3985C50.1169 64.4188 48.4902 63.5773 47.2909 62.0289C46.0939 60.4834 45.4661 58.4183 45.5229 56.214C45.6399 51.6589 48.6777 47.9188 52.2959 47.8771L54.6335 47.85C54.6337 47.8501 54.6339 47.85 54.6343 47.85L54.6612 47.8497L54.6612 47.8512C54.7531 47.8615 54.7661 47.9293 54.765 47.9714C54.763 48.0449 54.7612 48.0742 54.6552 48.0875L54.6549 48.0955L54.6272 48.0959L54.6274 48.0903C54.5534 48.0967 54.439 48.098 54.2619 48.1001L52.2896 48.123C48.7901 48.1634 45.8501 51.7924 45.7362 56.2115C45.6813 58.3544 46.2908 60.3608 47.4528 61.8612C48.6126 63.3585 50.184 64.1723 51.8774 64.1526C53.57 64.133 54.0805 64.1271 54.2139 64.1254C54.2143 64.1255 54.2147 64.1254 54.2152 64.1254C54.2169 64.1255 54.2188 64.1254 54.2207 64.1254C54.2455 64.1251 54.2546 64.125 54.2557 64.125L54.2556 64.1269C54.3025 64.1323 54.3618 64.1547 54.3595 64.2467C54.3575 64.3199 54.3552 64.3491 54.2496 64.3626L54.2492 64.3709Z" fill="#102770"/>
<g opacity="0.3">
<path d="M51.8687 64.2795C53.5685 64.2584 54.0769 64.2543 54.208 64.2517L54.6145 47.9954C54.5353 47.9967 54.253 48 53.3815 48.0092L53.129 58.0837C52.9962 58.0849 49.109 54.1721 49.109 54.1721L48.7582 54.8282C48.0599 56.1342 46.4467 56.2082 45.7379 54.9728C45.7343 54.9666 45.7308 54.9606 45.7274 54.9547C45.6638 55.3703 45.6261 55.7948 45.6158 56.228C45.5032 60.7171 48.3025 64.3211 51.8687 64.2795Z" fill="#102770"/>
</g>
<path d="M49.1541 56.6079C49.0582 61.0697 51.4585 64.6568 54.5153 64.62C57.572 64.5832 60.1277 60.9363 60.2236 56.4745C60.3195 52.0127 57.9192 48.4255 54.8624 48.4624C51.8057 48.4992 49.25 52.146 49.1541 56.6079Z" fill="white"/>
<path d="M55.4621 64.6132C55.1529 64.6927 54.8362 64.736 54.5141 64.7398C53.0018 64.758 51.6 63.9184 50.567 62.3755C49.5399 60.8415 49 58.7936 49.0467 56.6092C49.0932 54.4247 49.7208 52.3628 50.814 50.8032C51.9134 49.2346 53.3518 48.3608 54.8639 48.3424C56.376 48.3243 57.7779 49.1639 58.8107 50.7068C59.838 52.2408 60.3779 54.2887 60.3312 56.4731C60.2448 60.5257 58.1386 63.9255 55.4621 64.6132ZM53.9466 48.7082C52.8412 48.9922 51.811 49.765 50.9794 50.9514C49.9164 52.4679 49.3061 54.4763 49.2606 56.6066C49.2153 58.7368 49.7403 60.7316 50.739 62.2233C51.7319 63.7062 53.0743 64.5133 54.5192 64.4958C57.5133 64.4599 60.0236 60.8619 60.1173 56.4757C60.1626 54.3455 59.6377 52.3507 58.639 50.859C57.6461 49.3761 56.3035 48.569 54.8587 48.5865C54.5509 48.5902 54.246 48.6313 53.9466 48.7082Z" fill="#102770"/>
<g opacity="0.3">
<path d="M54.4658 64.6463C57.5471 64.6159 60.0925 61.0386 60.1491 56.6561C60.1533 56.3648 60.1456 56.0766 60.1264 55.7929C59.241 58.6441 57.2346 60.6583 54.9246 60.6825C52.0471 60.7116 49.7169 57.6375 49.4679 53.664C49.1705 54.619 49.0001 55.6687 48.9855 56.7682C48.9289 61.1508 51.3833 64.6788 54.4658 64.6463Z" fill="#102770"/>
</g>
<path d="M54.2444 65.0024L54.2045 65.0028L54.2048 64.9903C54.0806 65.0044 53.9551 65.0057 53.8403 65.0071L51.8654 65.0304C49.9498 65.053 48.1753 64.1403 46.8688 62.4603C45.5772 60.7997 44.898 58.5843 44.956 56.2221C45.0766 51.319 48.3729 47.2924 52.3025 47.2455L54.6414 47.218C54.6421 47.218 54.6427 47.2181 54.6433 47.218L54.6692 47.2176L54.669 47.2181C55.1045 47.2288 55.3296 47.6141 55.3207 47.9796C55.307 48.5369 54.9807 48.6942 54.6316 48.7412L54.6313 48.7574L54.6037 48.7577L54.6039 48.7446C54.4797 48.7591 54.3535 48.7605 54.2382 48.7619L52.2648 48.7852C49.0745 48.8235 46.3964 52.1521 46.2966 56.2064C46.248 58.1834 46.8119 60.0316 47.8843 61.4105C48.9417 62.7701 50.369 63.5088 51.9031 63.4907L54.2422 63.4631C54.2432 63.4631 54.2443 63.463 54.2452 63.4631L54.2823 63.4636C54.773 63.4807 54.9417 63.9232 54.9342 64.2246C54.9208 64.7782 54.5946 64.9376 54.2448 64.9853L54.2444 65.0024Z" fill="#102770"/>
<path d="M55.57 65.2306C55.2233 65.3196 54.8682 65.3679 54.5066 65.3723C52.8159 65.3927 51.2566 64.4682 50.1158 62.7692C49.0123 61.1255 48.4312 58.9402 48.4791 56.6157C48.5271 54.2913 49.199 52.0908 50.3713 50.4197C51.5826 48.6921 53.1818 47.7301 54.8716 47.7095C56.5623 47.6892 58.1216 48.6135 59.2623 50.3125C60.3659 51.9563 60.9471 54.1417 60.8991 56.4661C60.809 60.8212 58.5052 64.4773 55.57 65.2306ZM54.0502 49.344C53.0728 49.5947 52.1563 50.2855 51.4107 51.3482C50.428 52.7495 49.8642 54.6144 49.8231 56.5994C49.8232 56.5995 49.8232 56.5996 49.8232 56.5996C49.7821 58.5846 50.2691 60.4368 51.1945 61.8152C52.0827 63.1382 53.2702 63.8584 54.538 63.8432C57.2196 63.81 59.4717 60.5089 59.555 56.4822C59.5961 54.4974 59.1091 52.645 58.1836 51.2666C57.2953 49.9435 56.108 49.2234 54.8402 49.2386C54.5739 49.2417 54.31 49.2773 54.0502 49.344Z" fill="#102770"/>
<path d="M19.4482 96.697L29.9066 99.0067C30.1252 99.055 30.3367 98.9192 30.3606 98.7152L31.951 85.1364C31.9749 84.9324 31.8006 84.7504 31.577 84.7458L20.874 84.5232C19.4692 84.494 18.2905 85.443 18.1404 86.724L17.2986 93.9117C17.1485 95.1928 18.0755 96.3938 19.4482 96.697Z" fill="white"/>
<g opacity="0.3">
<path d="M18.0042 86.8792L17.1448 94.1148C16.9916 95.4044 17.9124 96.6114 19.2804 96.9143L29.6941 99.2263C29.9117 99.2741 30.1243 99.1364 30.1485 98.9325L30.78 93.6153L20.3981 92.5561C19.0052 92.4135 17.9755 91.3219 18.009 90.0266L18.0988 86.4422C18.053 86.5825 18.022 86.729 18.0042 86.8792Z" fill="#102770"/>
</g>
<path d="M30.2238 99.7393C30.0726 99.7768 29.9137 99.7796 29.7578 99.7452L19.3016 97.4355C17.5808 97.0553 16.4311 95.5064 16.6273 93.8326L17.47 86.6422C17.6661 84.9687 19.1423 83.7335 20.9034 83.7704L31.604 83.9922C31.9153 83.9984 32.2052 84.1455 32.3993 84.3954C32.5781 84.6258 32.6576 84.9163 32.6228 85.2135L31.0305 98.7977C30.9956 99.095 30.8514 99.3587 30.6243 99.5405C30.5043 99.6367 30.3675 99.7037 30.2238 99.7393ZM19.595 95.9631L29.7365 98.2034L31.227 85.4863L20.8482 85.2711C19.7943 85.2495 18.9198 85.908 18.8148 86.8032L17.972 93.9936C17.8672 94.8889 18.5648 95.7356 19.595 95.9631Z" fill="#102770"/>
<path d="M32.9675 100.695L30.7714 100.41C30.6473 100.394 30.5629 100.262 30.5828 100.116L32.5466 85.6698C32.5665 85.5236 32.6832 85.418 32.8073 85.4341L35.0034 85.7193C35.5708 85.793 35.957 86.3951 35.8661 87.0642L34.1596 99.6174C34.0686 100.286 33.5349 100.769 32.9675 100.695Z" fill="white"/>
<g opacity="0.3">
<path d="M31.0347 94.7335L30.3854 100.141C30.3673 100.292 30.4598 100.425 30.5935 100.441L32.7424 100.699C33.3498 100.771 33.9075 100.274 33.9895 99.5911L34.639 94.1818C34.5567 94.8671 33.9991 95.3643 33.3916 95.2915L31.2427 95.0339C31.109 95.0179 31.0168 94.8822 31.0347 94.7335Z" fill="#102770"/>
</g>
<path d="M33.4471 101.404C33.2671 101.45 33.0793 101.464 32.8889 101.44L30.6917 101.159C30.4552 101.129 30.2472 100.992 30.1061 100.775C29.9649 100.557 29.9075 100.284 29.9446 100.006L31.8618 85.6173C31.8986 85.3398 32.0255 85.0905 32.2192 84.9154C32.4125 84.7403 32.6493 84.6602 32.8861 84.6909L35.0832 84.9712C35.5344 85.0289 35.9309 85.2892 36.2001 85.7043C36.4691 86.1195 36.5784 86.6397 36.5079 87.1693L34.8419 99.6729C34.7261 100.543 34.1476 101.222 33.4471 101.404ZM33.0958 99.8882C33.1934 99.9005 33.2917 99.8676 33.372 99.7951C33.4521 99.7227 33.5048 99.6192 33.5202 99.5041L35.1861 87.0005C35.2014 86.8854 35.1776 86.7723 35.1192 86.6822C35.0607 86.592 34.9745 86.5353 34.8765 86.5228L33.1154 86.2982L31.3345 99.6633L33.0958 99.8882Z" fill="#102770"/>
<path d="M50.7835 94.9612C47.7634 95.0259 40.9245 94.9588 35.2852 93.3403C34.356 93.0737 33.4237 93.7239 33.3262 94.7098L33.3149 94.8241C33.2389 95.5934 33.7058 96.3146 34.4268 96.5374C40.2557 98.3382 47.6209 98.8445 50.7625 98.983C51.6038 99.0201 52.3036 98.3379 52.3142 97.4707L52.3256 96.5389C52.3364 95.66 51.6361 94.943 50.7835 94.9612Z" fill="white"/>
<g opacity="0.35">
<path d="M33.295 94.7183L33.2834 94.8326C33.2079 95.6006 33.6744 96.3221 34.3961 96.5462C40.2342 98.3544 47.6119 98.8749 50.7578 99.0201C51.6005 99.0579 52.3009 98.3788 52.3115 97.513L52.3239 96.5812C52.3249 96.5565 52.3239 96.5316 52.3226 96.5086C52.0541 96.9834 51.543 97.2929 50.9669 97.2685C47.8211 97.1233 40.4431 96.6048 34.6053 94.7946C34.152 94.6545 33.7989 94.3168 33.6193 93.895C33.443 94.1216 33.3265 94.4038 33.295 94.7183Z" fill="#102770"/>
</g>
<path d="M51.2487 99.6421C51.0759 99.6789 50.8976 99.6942 50.7163 99.6868C47.746 99.5653 40.1968 99.0857 34.2593 97.2606C33.2184 96.9405 32.5421 95.8958 32.6512 94.7765L32.6625 94.6617C32.729 93.98 33.0792 93.3678 33.6233 92.9821C34.1686 92.5955 34.8485 92.4784 35.4888 92.6613C41.0978 94.2615 48.0211 94.276 50.7375 94.2079C51.3399 94.1928 51.9081 94.4269 52.3376 94.8671C52.7676 95.3075 53.0004 95.8946 52.9932 96.52L52.9823 97.455C52.9753 98.0716 52.7345 98.6446 52.3047 99.068C52.0059 99.3623 51.6422 99.5582 51.2487 99.6421ZM34.7232 94.04C34.6136 94.0634 34.5083 94.1092 34.4137 94.1763C34.2039 94.325 34.0741 94.5518 34.0485 94.815L34.0372 94.9298C33.9956 95.3562 34.2527 95.754 34.6485 95.8756C40.4347 97.6543 47.8458 98.1239 50.7636 98.2433C50.9801 98.2521 51.1859 98.172 51.3425 98.0178C51.4991 97.8636 51.5868 97.6547 51.5893 97.4299L51.6001 96.4948C51.6028 96.2666 51.5179 96.0526 51.3613 95.892C51.205 95.7319 50.9982 95.6467 50.7789 95.6522C48.0008 95.7218 40.9143 95.7054 35.1261 94.0542C34.9926 94.0161 34.8548 94.012 34.7232 94.04Z" fill="#102770"/>
<path d="M49.6497 82.7626C49.6497 82.7626 62.9511 88.8001 61.0506 102.002C60.1474 108.277 54.9247 107.062 53.5758 105.278C51.2363 102.182 50.8893 91.8958 44.8822 92.4863" fill="white"/>
<path d="M57.8452 106.707C56.1647 107.142 54.2858 106.404 53.4948 105.358C52.7357 104.354 52.1818 102.603 51.5952 100.749C50.3302 96.7489 48.8965 92.2157 44.8851 92.6099C44.8263 92.6158 44.7764 92.5655 44.7739 92.4977C44.7711 92.4297 44.8187 92.3691 44.8758 92.3644C49.0442 91.9545 50.5063 96.5771 51.7963 100.655C52.3761 102.489 52.9236 104.22 53.6583 105.192C54.4439 106.231 56.4722 106.968 58.1288 106.366C59.1817 105.983 60.525 104.912 60.946 101.985C61.9186 95.2236 58.7892 90.3931 55.9925 87.5315C52.9528 84.4208 49.6372 82.8956 49.604 82.8806C49.5499 82.8561 49.5251 82.7848 49.5487 82.7212C49.5724 82.6574 49.6357 82.6262 49.689 82.6507C49.7224 82.6659 53.0671 84.2033 56.1334 87.3395C58.9706 90.2411 62.145 95.1426 61.1567 102.015C60.7171 105.072 59.2982 106.196 58.1854 106.601C58.0732 106.642 57.9594 106.677 57.8452 106.707Z" fill="#102770"/>
<g opacity="0.4">
<path d="M61.0547 101.281C61.0318 101.563 60.9992 101.85 60.9604 102.139C60.1226 108.288 54.8461 107.103 53.4647 105.354C51.071 102.321 50.6013 92.2417 44.5554 92.8231C45.4504 91.3034 47.2021 90.7255 48.6209 91.5117C52.4603 93.6392 52.6266 99.2238 54.5297 101.635C55.6333 103.033 59.2317 104.072 61.0547 101.281Z" fill="#102770"/>
</g>
<path d="M57.9526 107.325C56.0272 107.823 53.9672 106.959 53.0746 105.782C52.2489 104.694 51.6764 102.893 51.0704 100.986C49.8085 97.0144 48.5036 92.9079 44.9053 93.262C44.5357 93.2983 44.2226 92.9832 44.2061 92.5582C44.1895 92.1333 44.4752 91.7592 44.8454 91.7227C49.4291 91.2718 51.0381 96.3347 52.331 100.403C52.895 102.178 53.4278 103.854 54.0983 104.739C54.6963 105.526 56.4702 106.285 57.9922 105.73C59.2932 105.258 60.1031 103.966 60.4001 101.893C62.1806 89.4544 49.4961 83.5619 49.3678 83.5039C49.0283 83.3503 48.8724 82.9032 49.0196 82.5051C49.1664 82.1074 49.5607 81.909 49.9006 82.0626C50.0408 82.1261 53.37 83.6529 56.5102 86.8552C60.7301 91.1581 62.5322 96.424 61.7218 102.084C61.2106 105.656 59.3881 106.824 58.3474 107.202C58.2168 107.25 58.0849 107.29 57.9526 107.325Z" fill="#102770"/>
<path d="M14.9359 61.9716C24.8876 73.5663 42.025 70.3624 45.861 54.7389C48.4707 44.1096 41.2136 33.3147 31.9579 31.4295C25.2214 30.0574 18.0321 32.02 13.0004 43.1533C13.0004 43.1533 11.4471 48.4463 12.0716 52.3169C12.6962 56.1874 13.8922 59.8177 13.8922 59.8177L14.9359 61.9716Z" fill="#102770"/>
<g opacity="0.4">
<path d="M39.0321 49.7065C39.15 51.6729 40.4577 53.1307 41.9529 52.9627C43.4481 52.7947 44.5647 51.0644 44.4468 49.098C44.3289 47.1316 43.0212 45.6737 41.526 45.8417C40.0308 46.0098 38.9143 47.7401 39.0321 49.7065Z" fill="white"/>
<path d="M42.2835 53.144C42.1804 53.1703 42.0757 53.1896 41.9687 53.2016C40.3574 53.3824 38.9438 51.8251 38.8172 49.7302C38.7564 48.7221 38.999 47.7391 39.5007 46.9621C40.0098 46.1737 40.7222 45.6907 41.5101 45.6027C42.2969 45.5143 43.0586 45.8316 43.6553 46.4959C44.2434 47.1505 44.6007 48.0662 44.6615 49.0742C44.7797 51.0302 43.7342 52.7742 42.2835 53.144ZM41.2744 46.134C40.7193 46.2756 40.2189 46.6605 39.8446 47.2402C39.4044 47.9221 39.1917 48.7894 39.2455 49.682C39.356 51.5108 40.5644 52.8729 41.9396 52.7187C43.3151 52.5645 44.3438 50.951 44.2333 49.1223C44.1793 48.2296 43.8654 47.4215 43.3493 46.8468C42.8418 46.2819 42.199 46.0116 41.5391 46.0856C41.4498 46.0956 41.3615 46.1119 41.2744 46.134Z" fill="#102770"/>
</g>
<g opacity="0.4">
<path d="M40.5953 56.5599C40.7044 57.3624 41.2887 57.9092 41.9003 57.7812C42.512 57.6532 42.9194 56.8989 42.8103 56.0964C42.7012 55.2939 42.1169 54.7471 41.5053 54.8751C40.8936 55.0031 40.4862 55.7574 40.5953 56.5599Z" fill="white"/>
<path d="M41.9805 58.0065C41.9652 58.0104 41.9499 58.0139 41.9344 58.0172C41.2064 58.1691 40.5103 57.5349 40.3826 56.6036C40.3215 56.1591 40.3976 55.7119 40.5964 55.3441C40.8016 54.9642 41.1097 54.7149 41.4713 54.6389C41.8299 54.5639 42.1902 54.6744 42.4853 54.9497C42.771 55.2164 42.9621 55.608 43.0229 56.0525C43.1478 56.964 42.6827 57.8276 41.9805 58.0065ZM41.507 55.1226C41.2862 55.1789 41.0933 55.3428 40.961 55.5874C40.8164 55.855 40.7615 56.1844 40.8069 56.5151C40.8986 57.1835 41.375 57.6435 41.869 57.5404C42.3568 57.4299 42.6901 56.8096 42.5986 56.141C42.5533 55.8105 42.4137 55.5215 42.2057 55.3276C42.0073 55.1423 41.7696 55.067 41.5367 55.1156C41.5268 55.1178 41.5168 55.1201 41.507 55.1226Z" fill="#102770"/>
</g>
<g opacity="0.4">
<path d="M36.4059 36.0819C36.4059 36.0819 27.0935 34.8447 20.9843 39.5173C20.9779 39.5222 20.9715 39.5271 20.9651 39.5321C19.68 40.5167 18.6629 41.8551 18.0111 43.3982C17.1491 45.4388 16.8321 46.978 16.6015 48.344C15.9019 52.4988 16.296 54.5791 16.296 54.5791C14.4707 51.9784 13.6535 49.2577 14.2043 45.7911C14.2594 45.4495 15.0377 42.3298 15.4683 41.3182C16.7654 38.2661 19.1039 34.9402 23.1483 33.6948C30.7108 31.366 36.7968 35.7067 36.4059 36.0819Z" fill="white"/>
<path d="M16.6779 55.6456L16.1004 54.8187C14.1281 51.9932 13.4543 49.1355 13.9801 45.8254C14.0349 45.4857 14.813 42.3367 15.262 41.2777C16.4541 38.4618 18.7766 34.8245 23.0722 33.4888C30.1222 31.2953 36.0627 34.8985 36.5453 35.8556C36.6374 36.0383 36.5834 36.1873 36.5021 36.2658L36.4275 36.3378L36.3288 36.3248C36.2365 36.3126 27.049 35.164 21.0911 39.7507L20.9468 39.5742L21.0722 39.7655C19.828 40.725 18.8328 42.0344 18.1942 43.5522C17.3213 45.6268 17.0167 47.1732 16.7996 48.4599C16.116 52.5231 16.4851 54.6057 16.489 54.6263L16.6779 55.6456ZM24.1894 33.6674C23.8591 33.7459 23.5252 33.837 23.1883 33.9418C19.0544 35.2271 16.8117 38.745 15.6583 41.4698C15.2335 42.4719 14.4621 45.5775 14.4099 45.9005C13.9444 48.8313 14.4253 51.302 15.9684 53.8004C15.9145 52.8049 15.9291 51.0041 16.3705 48.3807C16.5923 47.066 16.9037 45.4855 17.7975 43.3612C18.4683 41.7669 19.5139 40.3913 20.8214 39.3828L20.8408 39.3679C26.1507 35.2806 33.9251 35.6394 35.9116 35.809C34.7745 34.8347 30.0225 32.282 24.1894 33.6674Z" fill="#102770"/>
</g>
</svg>
