<svg width="25" height="25" viewBox="0 0 25 25" fill="none" xmlns="http://www.w3.org/2000/svg">
<path d="M9.32302 4.16507C10.0454 2.05113 12.9663 1.98711 13.8227 3.97301L13.8952 4.16628L14.87 7.01709C15.0934 7.67088 15.4544 8.26916 15.9287 8.77157C16.403 9.27398 16.9795 9.66883 17.6194 9.9295L17.8815 10.0273L20.7323 11.001C22.8462 11.7233 22.9102 14.6442 20.9256 15.5006L20.7323 15.5731L17.8815 16.548C17.2275 16.7712 16.6289 17.1322 16.1263 17.6064C15.6237 18.0807 15.2287 18.6573 14.9679 19.2973L14.87 19.5582L13.8964 22.4102C13.174 24.5242 10.2532 24.5882 9.39792 22.6035L9.32302 22.4102L8.3494 19.5594C8.12614 18.9054 7.76519 18.3069 7.29091 17.8043C6.81662 17.3016 6.24004 16.9066 5.60007 16.6458L5.33915 16.548L2.48834 15.5743C0.373188 14.852 0.309166 11.9311 2.29507 11.0759L2.48834 11.001L5.33915 10.0273C5.99294 9.80394 6.59122 9.44292 7.09363 8.96864C7.59604 8.49437 7.99089 7.91786 8.25156 7.27801L8.3494 7.01709L9.32302 4.16507ZM21.2735 2.18265e-07C21.4994 -2.85047e-07 21.7209 0.0633921 21.9127 0.182973C22.1044 0.302554 22.2588 0.473527 22.3582 0.676462L22.4162 0.817795L22.839 2.05717L24.0796 2.47996C24.306 2.5569 24.5046 2.69934 24.65 2.88924C24.7954 3.07913 24.8812 3.30792 24.8965 3.54662C24.9118 3.78532 24.8558 4.02318 24.7358 4.23005C24.6157 4.43692 24.4369 4.60349 24.2221 4.70866L24.0796 4.76664L22.8402 5.18943L22.4174 6.43001C22.3403 6.65642 22.1978 6.85485 22.0078 7.00017C21.8178 7.14548 21.589 7.23113 21.3503 7.24626C21.1116 7.2614 20.8738 7.20534 20.667 7.08519C20.4602 6.96504 20.2938 6.7862 20.1887 6.57135L20.1307 6.43001L19.7079 5.19064L18.4673 4.76785C18.2409 4.69091 18.0423 4.54846 17.8969 4.35857C17.7515 4.16868 17.6657 3.93989 17.6504 3.70119C17.6352 3.46249 17.6911 3.22463 17.8112 3.01776C17.9312 2.81089 18.11 2.64432 18.3248 2.53915L18.4673 2.48117L19.7067 2.05838L20.1295 0.817795C20.211 0.579131 20.3651 0.371944 20.5702 0.225285C20.7754 0.0786255 21.0213 -0.000151336 21.2735 2.18265e-07Z" fill="white"/>
</svg>
